<?xml version="1.0" encoding="UTF-8" standalone="no"?>
<!-- Created with Inkscape (http://www.inkscape.org/) -->

<svg
   width="865.71667mm"
   height="210.00363mm"
   viewBox="0 0 865.7167 210.00363"
   version="1.1"
   id="svg1"
   xml:space="preserve"
   xmlns="http://www.w3.org/2000/svg"
   xmlns:svg="http://www.w3.org/2000/svg"><defs
     id="defs1" /><g
     id="layer1"
     transform="translate(19.148575,-217.05509)"><path
       style="fill:#b91c1c"
       d="m 581.40938,426.75637 c -9.45499,-1.36107 -17.93389,-5.79946 -25.61835,-13.41024 -3.85271,-3.81577 -7.31693,-8.05563 -10.13407,-12.40311 -5.37355,-8.29257 -7.38215,-12.83878 -25.77419,-58.33665 -2.50426,-6.19498 -4.24976,-10.79905 -7.57335,-19.97604 -2.20446,-6.0869 -5.46631,-15.48097 -5.46631,-15.74288 0,-0.0727 3.02151,-0.13212 6.71448,-0.13212 5.05726,0 6.7783,0.0816 6.97309,0.33073 0.14223,0.1819 1.12493,1.9976 2.18376,4.03489 1.05884,2.03729 2.25166,4.29948 2.65071,5.02709 0.39905,0.7276 1.21687,2.24565 1.81738,3.37343 0.6005,1.12779 1.58299,2.97326 2.18331,4.10104 0.60031,1.12779 1.53758,2.88396 2.08281,3.90261 0.54523,1.01864 1.58759,2.98318 2.31635,4.36562 1.55619,2.95203 5.45247,10.31272 7.10774,13.42761 0.63797,1.20054 1.71077,3.22461 2.384,4.49791 0.67323,1.27331 1.72863,3.26761 2.34534,4.43178 1.31498,2.48232 3.11134,5.89742 5.42769,10.31875 0.91486,1.74625 2.10685,4.00843 2.64885,5.02708 0.542,1.01864 1.85273,3.51896 2.91272,5.55625 4.79816,9.22196 8.37358,14.78999 11.86489,18.47727 1.3666,1.44332 4.85995,4.03505 6.67107,4.9493 0.84764,0.42789 2.5885,1.09658 3.86859,1.48599 2.12237,0.64563 2.71206,0.70779 6.69305,0.70555 5.17287,-0.003 7.21185,-0.43612 10.98021,-2.3329 5.5863,-2.81182 9.86689,-7.76988 12.53819,-14.52257 1.4032,-3.5471 6.03873,-15.48619 6.79227,-17.49389 0.3277,-0.87313 1.38853,-3.61156 2.35741,-6.08542 0.96888,-2.47385 2.21882,-5.68854 2.77765,-7.14375 0.55883,-1.45521 2.40726,-6.21771 4.10763,-10.58333 1.70037,-4.36563 3.66356,-9.42578 4.36265,-11.24479 1.26705,-3.29686 5.98483,-15.45394 7.75207,-19.97604 0.51183,-1.30969 1.10794,-2.8575 1.3247,-3.43959 l 0.3941,-1.05833 12.53104,-0.0689 c 6.89208,-0.0379 12.66641,-0.017 12.83186,0.0464 0.20802,0.0797 0.11145,0.67234 -0.31303,1.921 -3.65871,10.76256 -8.08447,22.23183 -16.93025,43.87447 -3.31119,8.10135 -11.42336,28.38172 -14.1817,35.45416 -2.76357,7.08588 -8.07972,16.18491 -12.59857,21.56354 -2.90626,3.45922 -7.3973,7.71874 -10.39357,9.85777 -2.84861,2.03361 -7.83887,4.57681 -10.98622,5.59894 -5.24097,1.70204 -12.45559,2.36572 -17.626,1.62142 z M 476.8747,392.67876 c -0.081,-30.7731 -0.12457,-33.55991 -0.55368,-35.38802 -2.24946,-9.58332 -7.81716,-16.75971 -16.30916,-21.02143 -2.59266,-1.30112 -4.79686,-2.06651 -8.26102,-2.86855 l -2.45461,-0.5683 -60.52344,-0.0795 c -33.28789,-0.0437 -60.52026,-0.16631 -60.51638,-0.27242 0.01,-0.26817 2.84356,-3.76535 4.9666,-6.12938 0.97192,-1.08224 3.07819,-3.08936 4.68059,-4.46026 9.4839,-8.11376 21.32183,-13.20263 33.34054,-14.33239 3.69804,-0.34761 75.61021,-0.35708 79.45494,-0.0105 13.87975,1.25133 24.99891,6.2704 34.54087,15.59138 9.12188,8.91063 14.2595,18.72594 16.4909,31.50548 0.39003,2.23376 0.44968,6.34949 0.53595,36.97552 l 0.0971,34.46198 h -12.70064 -12.70063 z m -205.04183,19.57917 c -0.0891,-12.96931 -0.10576,-13.33372 -0.67826,-14.86167 -1.60416,-4.28136 -4.99029,-7.76213 -9.18339,-9.44005 l -1.5875,-0.63526 -70.77604,-0.13229 -70.77605,-0.13229 -0.0688,-12.55047 c -0.0541,-9.86494 0.003,-12.59576 0.26458,-12.7621 0.18334,-0.11639 31.94445,-0.21652 70.58023,-0.2225 l 70.24688,-0.0109 1.73508,-0.59152 c 4.60296,-1.56921 8.32553,-5.30062 9.69056,-9.71357 0.31171,-1.00772 0.44738,-2.3502 0.4412,-4.36563 -0.008,-2.49627 -0.10776,-3.16568 -0.7035,-4.70431 -1.8793,-4.85369 -5.90277,-8.4203 -10.80161,-9.57512 -1.47534,-0.34778 -10.33648,-0.39761 -71.3206,-0.40103 -38.29977,-0.002 -69.67274,-0.0932 -69.71771,-0.20235 -0.045,-0.10914 -0.02,-15.20031 0.0554,-33.53594 l 0.13717,-33.3375 0.74874,-2.24896 c 1.51841,-4.56077 3.84282,-8.17508 7.51183,-11.68043 3.52453,-3.36731 7.47544,-5.67144 11.838,-6.90378 l 2.11667,-0.59791 33.85057,-0.0711 c 33.67485,-0.0708 33.85915,-0.0683 35.50455,0.47927 3.37412,1.12283 7.13477,4.38062 8.64887,7.49237 1.24319,2.55499 1.8352,6.59136 1.26659,8.6358 l -0.18396,0.66146 -38.22608,0.13229 -38.22607,0.13229 -1.74189,0.85759 c -2.17197,1.06933 -3.96503,2.94157 -5.082,5.3064 l -0.83766,1.77351 v 18.78542 18.78542 l 63.10313,0.13251 63.10312,0.13252 2.70892,0.60145 c 5.22458,1.15998 9.40206,2.93976 13.70935,5.84075 7.53513,5.07496 13.38542,12.59359 16.08901,20.67714 1.45854,4.36093 1.84937,7.10073 1.84937,12.96458 0,4.56898 -0.0907,5.84719 -0.57522,8.10889 -0.68633,3.2036 -2.15923,7.55481 -3.30057,9.75049 -1.18938,2.28808 -3.74145,6.10988 -5.24228,7.85046 -0.71158,0.82526 -1.29378,1.6412 -1.29378,1.81321 0,0.17201 0.54397,0.91778 1.20883,1.65726 2.87385,3.19642 5.93995,8.6009 7.37543,13.00035 1.77441,5.43826 1.80399,5.77231 1.92827,21.78236 l 0.11347,14.61823 h -12.70576 -12.70577 z m 45.21579,13.11892 c -0.29244,-0.29243 -0.20172,-38.85772 0.10014,-42.57517 0.79673,-9.81168 4.17509,-17.39023 10.82183,-24.27621 6.50011,-6.73407 12.59402,-10.18851 21.44539,-12.1567 2.49601,-0.55501 2.83653,-0.55957 48.81562,-0.65353 32.96313,-0.0674 46.89314,-0.0101 48.35375,0.19884 8.24974,1.17997 15.14916,7.30796 17.42615,15.47771 0.46329,1.66226 0.58817,2.79826 0.58171,5.29166 -0.005,1.74625 -0.11681,3.44214 -0.24951,3.76864 l -0.24128,0.59364 -54.76354,0.0678 c -52.41009,0.0649 -54.82606,0.0888 -56.21874,0.55557 -4.54056,1.52188 -8.36701,5.27944 -9.85707,9.67962 -0.58656,1.73213 -0.58915,1.82128 -0.66792,22.97169 l -0.0791,21.23281 h -12.64553 c -6.95505,0 -12.72491,-0.0794 -12.82192,-0.17639 z m 381.30249,-0.12188 c -14.73105,-1.71691 -28.18334,-12.66916 -32.89196,-26.77915 -2.87157,-8.60502 -2.87157,-17.67347 0,-26.27849 3.8143,-11.43006 13.86157,-21.36743 25.36045,-25.08307 6.15108,-1.9876 2.41991,-1.86206 55.3391,-1.86206 45.17766,0 47.43968,0.0224 49.08021,0.48655 4.00349,1.13262 7.37403,3.24382 10.33613,6.47421 3.05723,3.33414 4.8674,7.34555 5.27261,11.68435 0.22204,2.37747 -0.0445,6.41836 -0.43171,6.54535 -0.12544,0.0411 -24.87401,0.10512 -54.99682,0.14217 l -54.76875,0.0674 -1.75143,0.68224 c -2.6217,1.02124 -4.10973,1.98683 -5.96783,3.87258 -4.31191,4.37606 -5.39722,11.02911 -2.6864,16.46788 1.18906,2.38564 4.51559,5.72015 6.83378,6.85018 3.55639,1.73359 0.81929,1.65149 51.80933,1.554 42.10906,-0.0805 46.39377,-0.12787 48.18655,-0.53247 7.22065,-1.6296 12.46276,-4.46367 17.59384,-9.51185 l 2.89283,-2.8461 h 14.50352 c 9.49263,0 14.50352,0.0914 14.50352,0.26458 0,0.14552 -0.11906,0.26459 -0.26458,0.26459 -0.14552,0 -0.26459,0.16874 -0.26459,0.37497 0,0.65636 -4.05132,8.40154 -5.61655,10.73753 -8.19123,12.22478 -20.96315,21.35585 -34.78738,24.87063 -7.05737,1.79432 -3.11829,1.67376 -56.69815,1.73534 -27.3424,0.0314 -49.43986,-0.0478 -50.58572,-0.18133 z m 116.99029,-82.40458 c -5.18157,-5.24257 -10.97934,-8.48098 -18.09808,-10.1089 -1.68947,-0.38634 -7.76595,-0.43631 -62.28365,-0.51213 -36.24432,-0.0504 -60.37692,-0.18057 -60.325,-0.32537 0.25755,-0.71835 3.88885,-5.00395 6.30424,-7.44015 7.15169,-7.21331 16.72649,-12.95822 25.59844,-15.35914 0.47294,-0.12799 1.30638,-0.35269 1.85208,-0.49934 2.34167,-0.62928 6.33967,-1.32866 9.11548,-1.5946 4.30289,-0.41223 79.95274,-0.20005 81.96734,0.2299 0.80036,0.17082 2.16958,0.44515 3.0427,0.60963 0.87313,0.16448 2.24235,0.47197 3.04271,0.68331 0.80037,0.21133 1.8124,0.47886 2.24896,0.5945 4.72246,1.25095 10.88122,4.21608 16.00729,7.70669 9.23174,6.28638 15.76213,13.7521 20.38019,23.2992 0.72815,1.50533 1.54676,3.17702 1.81913,3.71486 0.27238,0.53784 0.42927,1.04386 0.34865,1.12448 -0.0806,0.0806 -6.5885,0.14658 -14.46197,0.14658 H 817.58456 Z M 302.71706,299.99193 c -0.29104,-0.0665 -1.17419,-0.25187 -1.96254,-0.41185 -10.05434,-2.0403 -19.7569,-10.82263 -26.05431,-23.58325 -1.61479,-3.27209 -4.75171,-10.45437 -6.55768,-15.01442 -0.43224,-1.09141 -1.08662,-2.69875 -1.45416,-3.57187 -0.84406,-2.0051 -0.98586,-2.35186 -4.81466,-11.77396 -2.89995,-7.13634 -6.74805,-17.38044 -9.2928,-24.73854 -0.5536,-1.60073 -1.09162,-3.12038 -1.1956,-3.377 -0.17871,-0.44104 0.30022,-0.46276 8.75068,-0.39687 l 8.93973,0.0697 0.46271,1.19062 c 0.25449,0.65485 1.47751,3.81 2.71784,7.01146 4.14993,10.71157 6.44142,16.61605 9.29281,23.94479 5.63463,14.4823 6.44644,16.57709 7.38267,19.05 2.3963,6.32953 5.32507,9.95253 9.87028,12.20989 4.97873,2.47267 11.59928,1.98906 16.34151,-1.19368 3.75892,-2.5228 5.45189,-4.99966 8.07388,-11.81232 0.7556,-1.96323 2.18431,-5.65311 3.17493,-8.19972 0.99062,-2.54661 2.95563,-7.60677 4.3667,-11.24479 1.41107,-3.63802 3.51865,-9.05537 4.68352,-12.03854 1.16487,-2.98318 2.39168,-6.13834 2.72624,-7.01146 0.33457,-0.87313 1.53079,-3.93899 2.65827,-6.81302 l 2.04997,-5.22552 h 8.82573 c 4.85416,0 8.82574,0.0571 8.82574,0.12693 0,0.0698 -0.16963,0.57584 -0.37694,1.12448 -0.20732,0.54865 -0.7548,2.06911 -1.21662,3.3788 -2.03502,5.77112 -4.57996,12.31322 -9.9323,25.53229 -3.15227,7.78536 -6.73675,16.71505 -7.96553,19.84375 -3.87671,9.87083 -5.64606,13.50894 -8.68569,17.85937 -5.28854,7.56919 -11.39361,12.28445 -18.54912,14.32645 -1.95567,0.5581 -3.04798,0.68764 -6.45505,0.76552 -2.25558,0.0516 -4.33917,0.0393 -4.63021,-0.0272 z M 15.114969,298.91171 c -9.8643204,-1.23026 -17.8197687,-5.08822 -24.7446847,-11.99984 -3.4568613,-3.45023 -5.6836373,-6.54111 -7.9801553,-11.07688 -0.846287,-1.67147 -1.538704,-3.07771 -1.538704,-3.12497 0,-0.0473 4.557334,-0.0859 10.1274093,-0.0859 H 1.1062436 l 1.844988,1.86885 c 3.173312,3.21437 7.1354034,5.44421 11.5584914,6.50505 1.767655,0.42396 4.549132,0.47013 33.413581,0.5546 21.882158,0.064 32.009966,0.004 33.20521,-0.19596 3.457807,-0.57926 6.349198,-2.69568 7.845319,-5.74255 0.63532,-1.29382 0.76747,-1.92941 0.84172,-4.04833 0.0728,-2.07748 -0.0114,-2.77905 -0.48545,-4.04404 -0.797,-2.12682 -2.968875,-4.42253 -5.243438,-5.54242 l -1.756023,-0.86458 -41.413045,-0.13707 -41.41304544,-0.13707 -1.98437526,-0.60923 c -4.254554,-1.3062 -7.488919,-3.28501 -10.3142623,-6.31036 -2.588844,-2.77211 -4.616004,-6.40626 -5.397757,-9.67672 l -0.174703,-0.73087 51.665759,0.0694 51.665759,0.0694 2.116667,0.61502 c 10.725104,3.11629 18.350511,11.63708 20.141271,22.50624 0.57006,3.46003 0.35703,7.98625 -0.5431,11.53916 -2.42984,9.59084 -10.280687,17.41508 -20.120555,20.05236 -2.117719,0.56759 -2.215923,0.56923 -36.386993,0.60743 -18.844948,0.0211 -34.62073,-0.006 -35.057293,-0.0607 z M 229.55976,277.00885 c 0,-14.20481 -0.1007,-22.79763 -0.2825,-24.10472 -0.60987,-4.38478 -2.6316,-8.53014 -5.67062,-11.62706 -2.99656,-3.05366 -6.18011,-4.83734 -10.63934,-5.96102 -2.00422,-0.50504 -3.21117,-0.51938 -44.06327,-0.52333 -31.66723,-0.003 -42.0026,-0.0795 -42.0026,-0.31075 0,-0.5403 2.15555,-3.18407 4.45029,-5.45823 5.8525,-5.80004 12.98333,-9.58566 21.34658,-11.3325 2.24622,-0.46917 4.01661,-0.49737 31.22084,-0.49737 31.58973,0 30.26744,-0.0585 35.98333,1.59129 12.29073,3.54744 22.98488,14.80145 26.01845,27.38058 0.15792,0.65485 0.43236,1.78594 0.60987,2.51355 0.23839,0.97716 0.34749,7.7367 0.41743,25.86302 l 0.0947,24.5401 h -8.74157 -8.74157 z m 155.83959,21.89226 c -5.93225,-0.67291 -12.83766,-4.38532 -16.96584,-9.12098 -3.86352,-4.43206 -5.89674,-8.72261 -6.71921,-14.17908 -0.70637,-4.68619 -0.33816,-9.02492 1.14047,-13.43831 1.42435,-4.25141 3.56913,-7.56658 7.10997,-10.98985 3.44368,-3.32932 7.47949,-5.68444 11.86274,-6.92259 l 2.11666,-0.59789 33.73438,-0.0764 c 25.31919,-0.0574 34.03138,0.002 34.925,0.23632 4.78543,1.2571 9.20183,5.66989 10.44279,10.43425 0.49453,1.89864 0.53906,5.66061 0.0744,6.28643 -0.30693,0.41337 -3.0729,0.45034 -38.43073,0.51359 l -38.1,0.0682 -1.45521,0.69119 c -2.629,1.24871 -4.80642,3.64155 -5.7507,6.31963 -0.41176,1.16779 -0.43293,5.02656 -0.033,6.00746 0.89071,2.18438 1.24174,2.72591 2.71778,4.1926 1.79751,1.78612 3.27093,2.58061 5.57623,3.00677 1.06249,0.19641 11.20597,0.28707 32.00021,0.286 32.98588,-0.002 33.3966,-0.0175 37.47312,-1.44174 3.61974,-1.26466 7.42695,-3.75995 9.73165,-6.37823 l 1.03367,-1.1743 h 9.95466 c 7.28248,0 9.95467,0.0811 9.95467,0.30201 0,0.1661 -0.45791,1.26743 -1.01757,2.44739 -5.57321,11.75033 -16.21988,20.15201 -29.13554,22.99196 -2.48394,0.54617 -3.05457,0.55541 -36.91877,0.59773 -18.91771,0.0236 -34.81255,-0.004 -35.32188,-0.0621 z m 117.81539,-19.19943 c 0.1211,-16.93404 0.0909,-16.59268 1.84186,-20.83594 3.50713,-8.49924 10.49158,-14.28933 19.51359,-16.17668 1.29926,-0.2718 4.56649,-0.35977 13.36146,-0.35977 h 11.64167 l 0.0714,5.62239 0.0714,5.6224 h -10.40771 c -6.05508,0 -11.06428,0.11556 -11.97766,0.27633 -5.95116,1.04751 -10.91593,5.56918 -12.39896,11.29239 -0.35285,1.36171 -0.41578,3.75097 -0.41578,15.7877 v 14.18316 h -5.70574 -5.70575 z m 54.60476,15.23559 c -0.097,-0.097 -0.17639,-12.06279 -0.17639,-26.59062 v -26.41424 h 5.68488 5.68487 l 0.0698,8.53281 0.0698,8.53282 29.43123,0.0673 29.43123,0.0673 0.0698,-8.53397 0.0698,-8.53396 5.62367,-0.0714 5.62367,-0.0714 -0.0674,26.52974 -0.0674,26.52975 h -5.55625 -5.55625 l -0.0688,-11.97355 -0.0688,-11.97354 -29.4322,0.0673 -29.4322,0.0673 -0.0688,11.97239 -0.0688,11.9724 h -5.50946 c -3.0302,0 -5.58883,-0.0794 -5.68584,-0.17639 z m 105.78924,-0.004 c -4.8663,-0.67637 -10.40614,-4.84345 -12.77523,-9.60955 -2.55332,-5.13672 -2.55396,-10.99699 -0.002,-16.13959 1.56576,-3.15497 4.77953,-6.36723 7.91874,-7.91502 3.91143,-1.92854 3.41014,-1.89553 27.55821,-1.81443 l 21.48548,0.0722 1.45583,0.68297 c 1.8328,0.85982 3.73905,2.74921 4.58628,4.54573 0.72736,1.54235 1.11796,3.94339 0.84424,5.18962 l -0.17921,0.81595 -24.78482,0.0714 -24.78482,0.0714 -1.07639,0.57615 c -4.72957,2.53159 -4.71947,8.99638 0.0181,11.55276 1.05457,0.56905 1.13222,0.57139 21.82813,0.65547 14.8656,0.0604 21.29628,-0.003 22.62187,-0.22223 2.59542,-0.42965 5.69474,-1.98851 7.84802,-3.9473 l 1.76261,-1.6034 h 6.24104 c 4.33189,0 6.24104,0.0883 6.24104,0.2887 0,0.15879 -0.53301,1.32071 -1.18447,2.58205 -1.37183,2.65614 -3.95605,5.98593 -6.01813,7.75445 -2.57154,2.20545 -6.50913,4.51018 -9.06593,5.30641 -3.68115,1.14638 -2.50087,1.09571 -26.72626,1.14744 -12.66031,0.027 -23.37594,-4.8e-4 -23.8125,-0.0612 z m 53.01299,-36.76129 c -2.34957,-2.08675 -4.82107,-3.45459 -7.50466,-4.1534 -0.6809,-0.17731 -10.69964,-0.32936 -28.09291,-0.42637 l -27.03458,-0.15078 1.48645,-1.80756 c 2.83049,-3.44197 7.68955,-6.71367 11.96917,-8.05909 4.03472,-1.26844 3.61264,-1.24585 23.28333,-1.24585 18.6058,0 18.6595,0.002 21.16667,0.6132 5.229,1.27566 11.04009,4.88373 14.18765,8.80903 2.30765,2.87785 4.54491,6.82217 4.19279,7.39191 -0.0909,0.14708 -2.67171,0.25148 -6.21639,0.25148 h -6.06097 z m -248.67237,-9.66616 c 0,-5.88496 0.10075,-5.61658 -3.08377,-8.21411 -3.1049,-2.53259 -6.07034,-4.03444 -9.84401,-4.98553 -1.95224,-0.49202 -3.44443,-0.50953 -43.74359,-0.51346 -28.54119,-0.003 -41.77603,-0.0908 -41.89213,-0.27867 -0.2461,-0.39821 2.46778,-3.60737 5.38692,-6.37005 5.41049,-5.12047 11.97594,-8.54389 19.83104,-10.34049 2.55069,-0.58339 2.77082,-0.58837 30.08616,-0.68106 19.56053,-0.0664 28.23029,-0.006 29.98477,0.2092 13.55527,1.66174 25.63157,10.23113 31.80072,22.5659 l 1.15005,2.29944 h 11.61522 c 6.38837,0 11.57553,0.0995 11.52702,0.22108 -0.0485,0.12159 -0.9484,0.95802 -1.99977,1.85874 -2.38744,2.04535 -4.59448,4.59462 -6.27629,7.24951 l -1.2972,2.04776 H 484.57193 467.94936 Z M -18.063178,234.54673 c -0.313201,-0.19859 -0.299079,-0.45073 0.09225,-1.64717 1.232352,-3.76769 2.739782,-6.29028 5.407009,-9.04829 2.7804533,-2.87509 6.3549243,-5.03943 10.2163833,-6.18602 1.49562526,-0.4441 4.6080963,-0.4754 53.7801357,-0.54076 l 52.19263,-0.0694 -0.0697,8.80063 -0.0697,8.80063 -60.589581,0.0624 c -34.8748814,0.0359 -60.746537,-0.0371 -60.959398,-0.17206 z"
       id="path1" /></g></svg>
